<?xml version="1.0" encoding="UTF-8"?>
<svg version="1.1" xmlns="http://www.w3.org/2000/svg" width="239" height="159">
<path d="M0 0 C78.87 0 157.74 0 239 0 C239 52.47 239 104.94 239 159 C160.13 159 81.26 159 0 159 C0 106.53 0 54.06 0 0 Z " fill="#010101" transform="translate(0,0)"/>
<path d="M0 0 C3.63 0 7.26 0 11 0 C11.33 1.98 11.66 3.96 12 6 C12.66 6 13.32 6 14 6 C14.16081055 6.54301758 14.32162109 7.08603516 14.48730469 7.64550781 C15.23946379 10.18095997 15.99421699 12.71562566 16.75 15.25 C17.02150879 16.16064209 17.29301758 17.07128418 17.57275391 18.00952148 C19.36541849 23.98489341 21.25946676 29.90182249 23.3359375 35.78515625 C24 38 24 38 24 41 C20.7 41 17.4 41 14 41 C13.34 38.36 12.68 35.72 12 33 C8.04 33 4.08 33 0 33 C-0.99 35.97 -1.98 38.94 -3 42 C-6.3 42 -9.6 42 -13 42 C-13 37.63559813 -12.92687419 36.25660606 -11.296875 32.5703125 C-8.58413527 26.12336932 -6.4330263 19.51651974 -4.25 12.875 C-3.83878906 11.63234375 -3.42757812 10.3896875 -3.00390625 9.109375 C-1.99983745 6.07381817 -0.99860127 3.03735893 0 0 Z " fill="#949494" transform="translate(147,60)"/>
<path d="M0 0 C1.37478516 0.01740234 1.37478516 0.01740234 2.77734375 0.03515625 C3.69644531 0.04417969 4.61554688 0.05320313 5.5625 0.0625 C6.27277344 0.07410156 6.98304687 0.08570313 7.71484375 0.09765625 C7.71484375 1.74765625 7.71484375 3.39765625 7.71484375 5.09765625 C7.05484375 5.09765625 6.39484375 5.09765625 5.71484375 5.09765625 C5.63234375 6.04640625 5.54984375 6.99515625 5.46484375 7.97265625 C5.02876274 10.99535478 4.21528458 13.53800366 3.02734375 16.34765625 C-0.36008318 24.37248315 -2.72384306 32.7819261 -5.28515625 41.09765625 C-8.91515625 41.09765625 -12.54515625 41.09765625 -16.28515625 41.09765625 C-18.28515625 36.09765625 -18.28515625 36.09765625 -18.28515625 32.09765625 C-18.94515625 32.09765625 -19.60515625 32.09765625 -20.28515625 32.09765625 C-21.57250032 28.16676787 -22.85408467 24.23405351 -24.13037109 20.29956055 C-24.56531579 18.96148124 -25.00182834 17.62391051 -25.43994141 16.28686523 C-26.06955764 14.36446556 -26.69306468 12.44006841 -27.31640625 10.515625 C-27.69345703 9.35828857 -28.07050781 8.20095215 -28.45898438 7.00854492 C-29.28515625 4.09765625 -29.28515625 4.09765625 -29.28515625 1.09765625 C-25.98515625 1.09765625 -22.68515625 1.09765625 -19.28515625 1.09765625 C-18.11321328 4.70018501 -16.94740265 8.30449996 -15.78515625 11.91015625 C-15.45128906 12.93431641 -15.11742187 13.95847656 -14.7734375 15.01367188 C-14.29970703 16.48803711 -14.29970703 16.48803711 -13.81640625 17.9921875 C-13.52314453 18.89815674 -13.22988281 19.80412598 -12.92773438 20.73754883 C-12.28515625 23.09765625 -12.28515625 23.09765625 -12.28515625 26.09765625 C-11.29515625 26.09765625 -10.30515625 26.09765625 -9.28515625 26.09765625 C-9.03765625 24.94265625 -8.79015625 23.78765625 -8.53515625 22.59765625 C-7.49223187 17.91575112 -6.36937052 13.25501655 -5.22265625 8.59765625 C-5.04831055 7.87900391 -4.87396484 7.16035156 -4.69433594 6.41992188 C-3.13335834 0.1339042 -3.13335834 0.1339042 0 0 Z " fill="#9B9B9B" transform="translate(73.28515625,59.90234375)"/>
<path d="M0 0 C0.61875 0.845625 1.2375 1.69125 1.875 2.5625 C2.205 2.8925 2.535 3.2225 2.875 3.5625 C2.96237645 5.41619611 2.98198153 7.27317541 2.97265625 9.12890625 C2.96943359 10.25361328 2.96621094 11.37832031 2.96289062 12.53710938 C2.95451172 13.72111328 2.94613281 14.90511719 2.9375 16.125 C2.93298828 17.31287109 2.92847656 18.50074219 2.92382812 19.72460938 C2.91199675 22.67062226 2.89551287 25.61653681 2.875 28.5625 C-0.095 28.5625 -3.065 28.5625 -6.125 28.5625 C-6.18558594 27.13035156 -6.24617188 25.69820312 -6.30859375 24.22265625 C-6.39298104 22.35675959 -6.47762993 20.49087476 -6.5625 18.625 C-6.60181641 17.67947266 -6.64113281 16.73394531 -6.68164062 15.75976562 C-6.72353516 14.86064453 -6.76542969 13.96152344 -6.80859375 13.03515625 C-6.84525146 12.20250244 -6.88190918 11.36984863 -6.91967773 10.51196289 C-6.91867103 8.55911142 -6.91867103 8.55911142 -8.125 7.5625 C-11.125 7.39583333 -11.125 7.39583333 -14.125 7.5625 C-15.70903524 9.14653524 -15.34474935 10.8396638 -15.44140625 13.03515625 C-15.48330078 13.93427734 -15.52519531 14.83339844 -15.56835938 15.75976562 C-15.62733398 17.17805664 -15.62733398 17.17805664 -15.6875 18.625 C-15.73068359 19.57439453 -15.77386719 20.52378906 -15.81835938 21.50195312 C-15.92479132 23.85528176 -16.02543154 26.20887099 -16.125 28.5625 C-19.425 28.5625 -22.725 28.5625 -26.125 28.5625 C-26.125 18.6625 -26.125 8.7625 -26.125 -1.4375 C-4.18677606 -3.26568533 -4.18677606 -3.26568533 0 0 Z " fill="#909090" transform="translate(127.125,73.4375)"/>
<path d="M0 0 C2.97 0 5.94 0 9 0 C9 13.2 9 26.4 9 40 C6.03 40 3.06 40 0 40 C0 26.8 0 13.6 0 0 Z " fill="#979797" transform="translate(177,61)"/>
<path d="M0 0 C2.64 0 5.28 0 8 0 C8 9.57 8 19.14 8 29 C5.36 29 2.72 29 0 29 C0 19.43 0 9.86 0 0 Z " fill="#9D9D9D" transform="translate(86,72)"/>
<path d="M0 0 C2.5625 0.25 2.5625 0.25 5.5625 2.25 C5.875 5.25 5.875 5.25 5.5625 8.25 C3.5625 10.25 3.5625 10.25 0.5625 10.5 C-2.4375 10.25 -2.4375 10.25 -4.4375 8.25 C-4.6875 5.25 -4.6875 5.25 -4.4375 2.25 C-2.4375 0.25 -2.4375 0.25 0 0 Z " fill="#8C8C8C" transform="translate(89.4375,57.75)"/>
<path d="M0 0 C3.3 0 6.6 0 10 0 C10 1.65 10 3.3 10 5 C9.34 5 8.68 5 8 5 C8 4.01 8 3.02 8 2 C5.69 2 3.38 2 1 2 C1 2.99 1 3.98 1 5 C0.34 5 -0.32 5 -1 5 C-0.67 3.35 -0.34 1.7 0 0 Z " fill="#767676" transform="translate(71,60)"/>
<path d="M0 0 C0.66 0 1.32 0 2 0 C3.4606285 2.64738916 4 3.89448334 4 7 C2.02 7 0.04 7 -2 7 C-1.125 1.125 -1.125 1.125 0 0 Z " fill="#252525" transform="translate(152,77)"/>
</svg>
